<?xml version="1.0" encoding="utf-8"?>
<!-- Generator: Adobe Illustrator 19.2.1, SVG Export Plug-In . SVG Version: 6.00 Build 0)  -->
<svg version="1.1" id="Layer_1" xmlns="http://www.w3.org/2000/svg" xmlns:xlink="http://www.w3.org/1999/xlink" x="0px" y="0px"
	 viewBox="0 0 734 516" style="enable-background:new 0 0 734 516;" xml:space="preserve">
<g>
	<g>
		<path d="M258.4,354.8c-1.3-2.6-2.3-5.8-2.9-9.7c-7,7.8-16.1,11.7-27.2,11.7c-10.6,0-19.3-3.1-26.3-9.2c-7-6.1-10.4-13.8-10.4-23.2
			c0-11.4,4.2-20.2,12.7-26.3c8.5-6.1,20.7-9.2,36.8-9.3h13.3v-6.2c0-5-1.3-9-3.8-12c-2.6-3-6.6-4.5-12.1-4.5
			c-4.9,0-8.7,1.2-11.4,3.5c-2.8,2.3-4.1,5.5-4.1,9.6h-28.8c0-6.3,1.9-12,5.8-17.4c3.9-5.3,9.3-9.5,16.4-12.5c7.1-3,15-4.5,23.8-4.5
			c13.3,0,23.9,3.3,31.7,10c7.8,6.7,11.7,16.1,11.7,28.2v46.8c0.1,10.2,1.5,18,4.3,23.3v1.7H258.4z M234.5,334.8
			c4.3,0,8.2-0.9,11.8-2.8c3.6-1.9,6.3-4.4,8-7.6v-18.6h-10.8c-14.4,0-22.1,5-23.1,15l-0.1,1.7c0,3.6,1.3,6.6,3.8,8.9
			C226.7,333.6,230.1,334.8,234.5,334.8z"/>
		<path d="M332.4,246.8l0.9,12.1c7.7-9.4,18-14.1,31-14.1c13.9,0,23.5,5.5,28.6,16.5c7.6-11,18.4-16.5,32.4-16.5
			c11.7,0,20.4,3.4,26.1,10.2c5.7,6.8,8.6,17.1,8.6,30.8v69h-28.9v-69c0-6.1-1.2-10.6-3.6-13.5c-2.4-2.8-6.6-4.3-12.7-4.3
			c-8.6,0-14.6,4.1-18,12.4l0.1,74.3h-28.8v-68.9c0-6.3-1.2-10.8-3.7-13.6s-6.7-4.2-12.6-4.2c-8.2,0-14.1,3.4-17.8,10.2v76.5h-28.8
			v-108H332.4z"/>
	</g>
	<g>
		<path d="M529.6,304.6v51.2h-29.9V210.5h56.7c10.9,0,20.5,2,28.8,6c8.3,4,14.7,9.7,19.1,17c4.5,7.4,6.7,15.7,6.7,25.1
			c0,14.2-4.9,25.5-14.6,33.7c-9.7,8.2-23.2,12.3-40.5,12.3H529.6z M529.6,280.4h26.7c7.9,0,14-1.9,18.1-5.6c4.2-3.7,6.2-9,6.2-16
			c0-7.1-2.1-12.9-6.3-17.3s-10-6.7-17.4-6.8h-27.4V280.4z"/>
		<path d="M629.4,219.9c0-4.3,1.4-7.9,4.3-10.7c2.9-2.8,6.8-4.2,11.8-4.2c4.9,0,8.8,1.4,11.8,4.2c2.9,2.8,4.4,6.4,4.4,10.7
			c0,4.4-1.5,8-4.4,10.8c-3,2.8-6.9,4.2-11.7,4.2c-4.9,0-8.8-1.4-11.7-4.2C630.9,227.9,629.4,224.3,629.4,219.9z M660.1,355.8h-28.9
			v-108h28.9V355.8z"/>
	</g>
	<g>
		<path d="M182.8,208.3v193c0,20.2-5.4,35.9-16.1,47.1c-10.7,11.2-26.2,16.8-46.3,16.8c-8.5,0-16.5-1-24.2-2.9v-38.7
			c5.9,1,11,1.5,15.4,1.5c14.8,0,22.2-7.8,22.2-23.5V208.3H182.8z"/>
	</g>
	<path d="M156,117c-20.5,0-37.1,16.6-37.1,37.1s16.6,37.1,37.1,37.1s37.1-16.6,37.1-37.1C193.1,133.6,176.5,117,156,117z M156,172.7
		c-10.3,0-18.6-8.3-18.6-18.6c0-10.3,8.3-18.6,18.6-18.6c10.3,0,18.6,8.3,18.6,18.6C174.6,164.4,166.3,172.7,156,172.7z"/>
	<path d="M156,154.1c-4.8-4.8-3.9-13.6-8.8-8.8c-4.8,4.8-4.8,12.7,0,17.5c4.8,4.8,12.7,4.8,17.5,0C169.6,158,160.8,159,156,154.1z"
		/>
	<g>
		<path d="M156,55.1c-54.7,0-99,44.3-99,99c0,41.5,25.6,77.1,61.8,91.8v-10.3c-0.5-48.5-12.3-44.3-12.3-81.4
			c0-27.3,22.1-49.5,49.5-49.5c27.3,0,49.5,22.2,49.5,49.5c0,36.5-11.4,33.1-12.3,78.9v12.8c36.2-14.7,61.8-50.3,61.8-91.8
			C255,99.4,210.7,55.1,156,55.1z"/>
	</g>
</g>
</svg>
